<svg width="20" height="21" viewBox="0 0 20 21" fill="none" xmlns="http://www.w3.org/2000/svg">
<g id="mingcute:ai-fill">
<g id="Group">
<path id="Vector" d="M7.58925 5.04008C8.08759 3.58175 10.1026 3.53758 10.6934 4.90758L10.7434 5.04092L11.4159 7.00758C11.57 7.45861 11.8191 7.87134 12.1463 8.21793C12.4735 8.56453 12.8712 8.83692 13.3126 9.01675L13.4934 9.08425L15.4601 9.75592C16.9184 10.2542 16.9626 12.2692 15.5934 12.8601L15.4601 12.9101L13.4934 13.5826C13.0422 13.7366 12.6293 13.9856 12.2826 14.3128C11.9359 14.64 11.6633 15.0378 11.4834 15.4792L11.4159 15.6592L10.7443 17.6267C10.2459 19.0851 8.23092 19.1292 7.64092 17.7601L7.58925 17.6267L6.91759 15.6601C6.76357 15.2089 6.51456 14.796 6.18737 14.4493C5.86018 14.1025 5.46241 13.83 5.02092 13.6501L4.84092 13.5826L2.87425 12.9109C1.41509 12.4126 1.37092 10.3976 2.74092 9.80758L2.87425 9.75592L4.84092 9.08425C5.29195 8.93013 5.70468 8.68108 6.05127 8.35389C6.39787 8.0267 6.67026 7.62899 6.85009 7.18758L6.91759 7.00758L7.58925 5.04008ZM15.8334 2.16675C15.9893 2.16675 16.1421 2.21048 16.2744 2.29297C16.4067 2.37547 16.5132 2.49342 16.5818 2.63341L16.6218 2.73091L16.9134 3.58592L17.7693 3.87758C17.9255 3.93066 18.0625 4.02893 18.1628 4.15993C18.2631 4.29093 18.3223 4.44876 18.3328 4.61343C18.3434 4.7781 18.3048 4.94219 18.2219 5.0849C18.1391 5.22762 18.0158 5.34253 17.8676 5.41508L17.7693 5.45508L16.9143 5.74675L16.6226 6.60258C16.5694 6.75877 16.4711 6.89566 16.34 6.99591C16.209 7.09615 16.0511 7.15524 15.8865 7.16568C15.7218 7.17613 15.5577 7.13745 15.4151 7.05456C15.2724 6.97168 15.1576 6.8483 15.0851 6.70008L15.0451 6.60258L14.7534 5.74758L13.8976 5.45591C13.7414 5.40284 13.6044 5.30457 13.5041 5.17357C13.4037 5.04257 13.3446 4.88473 13.334 4.72006C13.3235 4.5554 13.3621 4.39131 13.4449 4.24859C13.5277 4.10588 13.6511 3.99097 13.7993 3.91842L13.8976 3.87841L14.7526 3.58675L15.0443 2.73091C15.1004 2.56627 15.2068 2.42334 15.3483 2.32216C15.4898 2.22099 15.6595 2.16664 15.8334 2.16675Z" fill="#4FC3F7"/>
</g>
</g>
</svg>
