<svg width="28" height="28" viewBox="0 0 28 28" fill="none" xmlns="http://www.w3.org/2000/svg">
<g id="bi:bar-chart-fill">
<path id="Vector" d="M2 19.5C2 19.0359 2.18437 18.5908 2.51256 18.2626C2.84075 17.9344 3.28587 17.75 3.75 17.75H7.25C7.71413 17.75 8.15925 17.9344 8.48744 18.2626C8.81563 18.5908 9 19.0359 9 19.5V24.75C9 25.2141 8.81563 25.6592 8.48744 25.9874C8.15925 26.3156 7.71413 26.5 7.25 26.5H3.75C3.28587 26.5 2.84075 26.3156 2.51256 25.9874C2.18437 25.6592 2 25.2141 2 24.75V19.5ZM10.75 12.5C10.75 12.0359 10.9344 11.5908 11.2626 11.2626C11.5908 10.9344 12.0359 10.75 12.5 10.75H16C16.4641 10.75 16.9092 10.9344 17.2374 11.2626C17.5656 11.5908 17.75 12.0359 17.75 12.5V24.75C17.75 25.2141 17.5656 25.6592 17.2374 25.9874C16.9092 26.3156 16.4641 26.5 16 26.5H12.5C12.0359 26.5 11.5908 26.3156 11.2626 25.9874C10.9344 25.6592 10.75 25.2141 10.75 24.75V12.5ZM19.5 3.75C19.5 3.28587 19.6844 2.84075 20.0126 2.51256C20.3408 2.18437 20.7859 2 21.25 2H24.75C25.2141 2 25.6592 2.18437 25.9874 2.51256C26.3156 2.84075 26.5 3.28587 26.5 3.75V24.75C26.5 25.2141 26.3156 25.6592 25.9874 25.9874C25.6592 26.3156 25.2141 26.5 24.75 26.5H21.25C20.7859 26.5 20.3408 26.3156 20.0126 25.9874C19.6844 25.6592 19.5 25.2141 19.5 24.75V3.75Z" fill="#AAAAAA"/>
</g>
</svg>
