<svg width="16" height="9" viewBox="0 0 16 9" fill="none" xmlns="http://www.w3.org/2000/svg">
<path id="Vector" fill-rule="evenodd" clip-rule="evenodd" d="M9.07271 8.63204C8.85393 8.85075 8.55724 8.97362 8.24788 8.97362C7.93852 8.97362 7.64183 8.85075 7.42304 8.63204L0.823211 2.0322C0.711782 1.92458 0.622903 1.79585 0.561759 1.65351C0.500615 1.51117 0.468431 1.35808 0.467085 1.20317C0.465739 1.04826 0.495258 0.894637 0.553919 0.751258C0.61258 0.607878 0.699209 0.477617 0.80875 0.368076C0.918292 0.258534 1.04855 0.171906 1.19193 0.113245C1.33531 0.0545835 1.48894 0.0250651 1.64385 0.0264112C1.79875 0.0277574 1.95184 0.0599414 2.09418 0.121085C2.23652 0.182229 2.36526 0.271108 2.47288 0.382536L8.24788 6.15754L14.0229 0.382536C14.2429 0.170019 14.5376 0.0524253 14.8435 0.0550835C15.1494 0.0577416 15.442 0.180438 15.6583 0.396748C15.8746 0.613057 15.9973 0.905672 16 1.21157C16.0027 1.51746 15.8851 1.81217 15.6725 2.0322L9.07271 8.63204Z" fill="#959595"/>
</svg>
