<svg width="12" height="6" viewBox="0 0 12 6" fill="none" xmlns="http://www.w3.org/2000/svg">
<path id="Vector" d="M11.0698 0.157712L6.38478 4.76871C6.28256 4.86984 6.14457 4.92656 6.00078 4.92656C5.85699 4.92656 5.719 4.86984 5.61678 4.76871L0.930783 0.158712C0.827928 0.0576367 0.68949 0.0010004 0.545283 0.0010004C0.401077 0.0010004 0.262639 0.0576367 0.159783 0.158712C0.109135 0.208089 0.0688825 0.267105 0.0413988 0.332282C0.013915 0.397459 -0.000244141 0.467478 -0.000244141 0.538212C-0.000244141 0.608947 0.013915 0.678966 0.0413988 0.744143C0.0688825 0.809319 0.109135 0.868335 0.159783 0.917712L4.84378 5.52771C5.15231 5.83064 5.56741 6.00036 5.99978 6.00036C6.43216 6.00036 6.84726 5.83064 7.15578 5.52771L11.8398 0.917712C11.8906 0.86832 11.931 0.809242 11.9585 0.743973C11.9861 0.678703 12.0003 0.608568 12.0003 0.537713C12.0003 0.466857 11.9861 0.396721 11.9585 0.331452C11.931 0.266183 11.8906 0.207105 11.8398 0.157712C11.7369 0.0566368 11.5985 0 11.4543 0C11.3101 0 11.1716 0.0566368 11.0688 0.157712" fill="#AAAAAA"/>
</svg>
