<svg width="12" height="20" viewBox="0 0 12 20" fill="none" xmlns="http://www.w3.org/2000/svg">
<path id="Vector" d="M10.9725 1.68139C11.0627 1.58592 11.1332 1.47361 11.18 1.35088C11.2268 1.22816 11.249 1.09741 11.2453 0.966105C11.2416 0.834803 11.2121 0.705519 11.1584 0.585633C11.1047 0.465747 11.0279 0.357608 10.9325 0.26739C10.837 0.177172 10.7247 0.106641 10.602 0.0598258C10.4792 0.0130103 10.3485 -0.00917372 10.2172 -0.00545937C10.0859 -0.00174503 9.95659 0.0277948 9.8367 0.0814735C9.71682 0.135152 9.60868 0.211919 9.51846 0.30739L1.01846 9.30739C0.842923 9.49306 0.745117 9.73888 0.745117 9.99439C0.745117 10.2499 0.842923 10.4957 1.01846 10.6814L9.51846 19.6824C9.60808 19.78 9.7162 19.8587 9.83652 19.9142C9.95685 19.9696 10.087 20.0005 10.2194 20.0052C10.3518 20.01 10.4838 19.9883 10.6077 19.9416C10.7317 19.8948 10.8451 19.8239 10.9415 19.7329C11.0378 19.642 11.1151 19.5328 11.1688 19.4117C11.2226 19.2907 11.2518 19.1601 11.2547 19.0277C11.2575 18.8952 11.2341 18.7635 11.1856 18.6402C11.1372 18.5169 11.0647 18.4045 10.9725 18.3094L3.12046 9.99439L10.9725 1.68139Z" fill="black"/>
</svg>
