<svg width="16" height="20" viewBox="0 0 16 20" fill="none" xmlns="http://www.w3.org/2000/svg">
<path id="Vector" d="M6.19057 8.67748L7.80157 7.20148C8.24207 6.79711 8.55168 6.27033 8.69066 5.68875C8.82964 5.10717 8.79165 4.49732 8.58157 3.93748L7.89457 2.10298C7.63791 1.41811 7.12979 0.856854 6.47373 0.533564C5.81767 0.210273 5.06304 0.149269 4.36357 0.36298C1.78957 1.15048 -0.188927 3.54298 0.420073 6.38398C0.820573 8.25298 1.58707 10.599 3.03907 13.095C4.49407 15.597 6.15607 17.445 7.58107 18.744C9.73207 20.7015 12.8071 20.2125 14.7856 18.3675C15.3156 17.8728 15.6372 17.1947 15.6848 16.4713C15.7325 15.7478 15.5026 15.0334 15.0421 14.4735L13.7821 12.9435C13.4021 12.4808 12.8923 12.1424 12.3184 11.9719C11.7444 11.8013 11.1326 11.8064 10.5616 11.9865L8.47957 12.642C7.94159 12.0874 7.47038 11.4717 7.07557 10.8075C6.6946 10.1358 6.39738 9.41997 6.19057 8.67598" fill="#EFEFEF"/>
</svg>
