<svg width="10" height="14" viewBox="0 0 10 14" fill="none" xmlns="http://www.w3.org/2000/svg">
<path id="Vector" d="M3.82364 6.0524L4.87097 5.08147C5.15735 4.81547 5.35863 4.46894 5.44898 4.08637C5.53933 3.7038 5.51464 3.30263 5.37806 2.93436L4.93143 1.7276C4.76457 1.27708 4.43423 0.907877 4.00772 0.695211C3.58121 0.482546 3.09061 0.442417 2.63588 0.582999C0.962488 1.10103 -0.323762 2.67485 0.0721569 4.5437C0.332527 5.77316 0.83084 7.31639 1.77481 8.9583C2.72072 10.6042 3.80121 11.8198 4.72762 12.6743C6.12602 13.962 8.12512 13.6403 9.41137 12.4266C9.75595 12.1012 9.96501 11.6552 9.99599 11.1793C10.027 10.7034 9.87754 10.2334 9.57812 9.8651L8.75898 8.85864C8.51192 8.55429 8.18051 8.3317 7.80739 8.21951C7.43427 8.10732 7.03651 8.11066 6.66529 8.22911L5.31175 8.66031C4.962 8.29548 4.65566 7.89047 4.39899 7.45355C4.15131 7.01171 3.95809 6.54082 3.82364 6.05142" fill="#3FC24A"/>
</svg>
