<svg width="20" height="18" viewBox="0 0 20 18" fill="none" xmlns="http://www.w3.org/2000/svg">
<path id="Vector" d="M11.8204 1.04693C11.6396 0.729454 11.3758 0.465073 11.0563 0.281044C10.7367 0.0970154 10.373 0 10.0025 0C9.63204 0 9.26829 0.0970154 8.94874 0.281044C8.62919 0.465073 8.36542 0.729454 8.1846 1.04693L0.264846 14.9569C0.0876883 15.268 -0.00357401 15.6192 0.000107109 15.9756C0.00378823 16.3321 0.102285 16.6814 0.285832 16.9889C0.469379 17.2964 0.731601 17.5515 1.0465 17.7289C1.3614 17.9062 1.71805 17.9997 2.08107 18H17.9173C18.2804 18 18.6373 17.9067 18.9524 17.7295C19.2675 17.5523 19.53 17.2972 19.7137 16.9896C19.8975 16.682 19.9961 16.3326 19.9999 15.976C20.0036 15.6195 19.9124 15.2681 19.7352 14.9569L11.8204 1.04693ZM11.2505 13.5008C11.2505 13.8262 11.1189 14.1383 10.8845 14.3684C10.6501 14.5986 10.3323 14.7278 10.0008 14.7278C9.66939 14.7278 9.35153 14.5986 9.11716 14.3684C8.8828 14.1383 8.75114 13.8262 8.75114 13.5008C8.75114 13.1753 8.8828 12.8632 9.11716 12.6331C9.35153 12.403 9.66939 12.2737 10.0008 12.2737C10.3323 12.2737 10.6501 12.403 10.8845 12.6331C11.1189 12.8632 11.2505 13.1753 11.2505 13.5008ZM9.1677 9.8196V5.72939C9.1677 5.51244 9.25548 5.30437 9.41172 5.15095C9.56796 4.99754 9.77987 4.91136 10.0008 4.91136C10.2218 4.91136 10.4337 4.99754 10.5899 5.15095C10.7462 5.30437 10.834 5.51244 10.834 5.72939V9.8196C10.834 10.0366 10.7462 10.2446 10.5899 10.398C10.4337 10.5515 10.2218 10.6376 10.0008 10.6376C9.77987 10.6376 9.56796 10.5515 9.41172 10.398C9.25548 10.2446 9.1677 10.0366 9.1677 9.8196Z" fill="#E57373"/>
</svg>
