<svg width="24" height="24" viewBox="0 0 24 24" fill="none" xmlns="http://www.w3.org/2000/svg">
<rect width="24" height="24" fill="#F5F5F5"/>
<g id="History">
<path d="M-189 -383C-189 -384.105 -188.105 -385 -187 -385H2314C2315.1 -385 2316 -384.105 2316 -383V813C2316 814.105 2315.1 815 2314 815H-187C-188.105 815 -189 814.105 -189 813V-383Z" fill="#EDEDED"/>
<path d="M-187 -384H2314V-386H-187V-384ZM2315 -383V813H2317V-383H2315ZM2314 814H-187V816H2314V814ZM-188 813V-383H-190V813H-188ZM-187 814C-187.552 814 -188 813.552 -188 813H-190C-190 814.657 -188.657 816 -187 816V814ZM2315 813C2315 813.552 2314.55 814 2314 814V816C2315.66 816 2317 814.657 2317 813H2315ZM2314 -384C2314.55 -384 2315 -383.552 2315 -383H2317C2317 -384.657 2315.66 -386 2314 -386V-384ZM-187 -386C-188.657 -386 -190 -384.657 -190 -383H-188C-188 -383.552 -187.552 -384 -187 -384V-386Z" fill="black" fill-opacity="0.1"/>
<g id="HistoryPage">
<rect width="360" height="800" transform="translate(-56 -229)" fill="white"/>
<g id="Frame 1">
<g id="Frame 2" clip-path="url(#clip0_0_1)">
<g id="AlertList" clip-path="url(#clip1_0_1)">
<g id="HistoryItem">
<rect x="-16" y="-23" width="280" height="70" rx="20" fill="white"/>
<g id="Frame 2_2">
<path id="Vector" d="M12 0C18.6276 0 24 5.3724 24 12C24 18.6276 18.6276 24 12 24C5.3724 24 0 18.6276 0 12C0 5.3724 5.3724 0 12 0ZM12 2.4C9.45392 2.4 7.01212 3.41143 5.21178 5.21178C3.41143 7.01212 2.4 9.45392 2.4 12C2.4 14.5461 3.41143 16.9879 5.21178 18.7882C7.01212 20.5886 9.45392 21.6 12 21.6C14.5461 21.6 16.9879 20.5886 18.7882 18.7882C20.5886 16.9879 21.6 14.5461 21.6 12C21.6 9.45392 20.5886 7.01212 18.7882 5.21178C16.9879 3.41143 14.5461 2.4 12 2.4ZM12 15.6C12.3183 15.6 12.6235 15.7264 12.8485 15.9515C13.0736 16.1765 13.2 16.4817 13.2 16.8C13.2 17.1183 13.0736 17.4235 12.8485 17.6485C12.6235 17.8736 12.3183 18 12 18C11.6817 18 11.3765 17.8736 11.1515 17.6485C10.9264 17.4235 10.8 17.1183 10.8 16.8C10.8 16.4817 10.9264 16.1765 11.1515 15.9515C11.3765 15.7264 11.6817 15.6 12 15.6ZM12 4.8C12.3183 4.8 12.6235 4.92643 12.8485 5.15147C13.0736 5.37652 13.2 5.68174 13.2 6V13.2C13.2 13.5183 13.0736 13.8235 12.8485 14.0485C12.6235 14.2736 12.3183 14.4 12 14.4C11.6817 14.4 11.3765 14.2736 11.1515 14.0485C10.9264 13.8235 10.8 13.5183 10.8 13.2V6C10.8 5.68174 10.9264 5.37652 11.1515 5.15147C11.3765 4.92643 11.6817 4.8 12 4.8Z" fill="#F3A2A2"/>
</g>
</g>
</g>
</g>
</g>
</g>
</g>
<defs>
<clipPath id="clip0_0_1">
<rect width="280" height="343" fill="white" transform="translate(-16 -133)"/>
</clipPath>
<clipPath id="clip1_0_1">
<rect width="280" height="308" fill="white" transform="translate(-16 -98)"/>
</clipPath>
</defs>
</svg>
