<svg width="17" height="18" viewBox="0 0 17 18" fill="none" xmlns="http://www.w3.org/2000/svg">
<path id="Vector" d="M15.2 0C15.6774 0 16.1353 0.189642 16.4728 0.527208C16.8104 0.864773 17 1.32261 17 1.8V12.6C17 13.0774 16.8104 13.5352 16.4728 13.8728C16.1353 14.2104 15.6774 14.4 15.2 14.4H13.4V16.2C13.4 16.6774 13.2104 17.1352 12.8728 17.4728C12.5353 17.8104 12.0774 18 11.6 18H2.60005C2.12266 18 1.66482 17.8104 1.32726 17.4728C0.989691 17.1352 0.800049 16.6774 0.800049 16.2V5.4C0.800049 4.92261 0.989691 4.46477 1.32726 4.12721C1.66482 3.78964 2.12266 3.6 2.60005 3.6H4.40005V1.8C4.40005 1.32261 4.58969 0.864773 4.92726 0.527208C5.26482 0.189642 5.72266 0 6.20005 0H15.2ZM11.6 5.4H2.60005V16.2H11.6V5.4ZM7.10005 11.7C7.33874 11.7 7.56766 11.7948 7.73644 11.9636C7.90523 12.1324 8.00005 12.3613 8.00005 12.6C8.00005 12.8387 7.90523 13.0676 7.73644 13.2364C7.56766 13.4052 7.33874 13.5 7.10005 13.5H5.30005C5.06135 13.5 4.83244 13.4052 4.66365 13.2364C4.49487 13.0676 4.40005 12.8387 4.40005 12.6C4.40005 12.3613 4.49487 12.1324 4.66365 11.9636C4.83244 11.7948 5.06135 11.7 5.30005 11.7H7.10005ZM15.2 1.8H6.20005V3.6H11.6C12.0774 3.6 12.5353 3.78964 12.8728 4.12721C13.2104 4.46477 13.4 4.92261 13.4 5.4V12.6H15.2V1.8ZM8.90005 8.1C9.12944 8.10025 9.35008 8.18809 9.51688 8.34556C9.68368 8.50304 9.78406 8.71826 9.7975 8.94726C9.81095 9.17625 9.73644 9.40174 9.58921 9.57765C9.44198 9.75356 9.23313 9.86661 9.00535 9.8937L8.90005 9.9H5.30005C5.07066 9.89974 4.85002 9.81191 4.68322 9.65444C4.51641 9.49696 4.41604 9.28174 4.40259 9.05274C4.38915 8.82375 4.46366 8.59826 4.61089 8.42235C4.75812 8.24644 4.96696 8.13339 5.19475 8.1063L5.30005 8.1H8.90005Z" fill="#AAAAAA"/>
</svg>
