<svg width="29" height="28" viewBox="0 0 29 28" fill="none" xmlns="http://www.w3.org/2000/svg">
<g id="iconamoon:history-fill" clip-path="url(#clip0_163_402)">
<path id="Vector" fill-rule="evenodd" clip-rule="evenodd" d="M6.25049 20.5998C6.03178 20.8186 5.90891 21.1153 5.90891 21.4247C5.90891 21.734 6.03178 22.0307 6.25049 22.2495C10.8063 26.8053 18.1937 26.8053 22.7495 22.2495C27.3053 17.6937 27.3053 10.3063 22.7495 5.75049C18.1937 1.19466 10.8063 1.19466 6.25049 5.75049C4.34386 7.65095 3.15624 10.1545 2.8905 12.8333H1.66666C1.43595 12.8334 1.21044 12.9018 1.01863 13.03C0.826816 13.1582 0.67732 13.3404 0.589038 13.5536C0.500756 13.7667 0.477653 14.0013 0.522648 14.2275C0.567644 14.4538 0.678718 14.6617 0.841829 14.8248L3.17516 17.1582L3.1775 17.1605C3.2858 17.2688 3.41443 17.3547 3.556 17.4131C3.69758 17.4716 3.8493 17.5015 4.00247 17.5012C4.15564 17.5009 4.30724 17.4703 4.44856 17.4112C4.58989 17.3522 4.71815 17.2658 4.826 17.157L7.15933 14.8248C7.32251 14.6616 7.43361 14.4536 7.47857 14.2272C7.52352 14.0009 7.50032 13.7662 7.4119 13.553C7.32347 13.3398 7.17379 13.1576 6.9818 13.0295C6.78981 12.9014 6.56414 12.8331 6.33333 12.8333H5.239C5.50277 10.7407 6.46753 8.79919 7.97604 7.32512C9.48455 5.85106 11.4479 4.93139 13.546 4.71601C15.6441 4.50064 17.7533 5.00226 19.5298 6.13911C21.3064 7.27597 22.6455 8.98102 23.3289 10.9764C24.0123 12.9717 23.9997 15.1397 23.2932 17.127C22.5866 19.1143 21.2278 20.8037 19.4382 21.9199C17.6486 23.036 15.5338 23.5131 13.4383 23.2734C11.3428 23.0337 9.3903 22.0913 7.899 20.5998C7.68026 20.3815 7.38382 20.2588 7.07475 20.2588C6.76567 20.2588 6.46923 20.3815 6.25049 20.5998ZM12.1667 9.33333C12.1667 9.02391 12.2896 8.72716 12.5084 8.50837C12.7272 8.28958 13.0239 8.16666 13.3333 8.16666C13.6427 8.16666 13.9395 8.28958 14.1583 8.50837C14.3771 8.72716 14.5 9.02391 14.5 9.33333V14H19.1667C19.4761 14 19.7728 14.1229 19.9916 14.3417C20.2104 14.5605 20.3333 14.8572 20.3333 15.1667C20.3333 15.4761 20.2104 15.7728 19.9916 15.9916C19.7728 16.2104 19.4761 16.3333 19.1667 16.3333H13.3333C13.0239 16.3333 12.7272 16.2104 12.5084 15.9916C12.2896 15.7728 12.1667 15.4761 12.1667 15.1667V9.33333Z" fill="#AAAAAA"/>
</g>
<defs>
<clipPath id="clip0_163_402">
<rect width="28" height="28" fill="white" transform="translate(0.5)"/>
</clipPath>
</defs>
</svg>
