<svg width="29" height="28" viewBox="0 0 29 28" fill="none" xmlns="http://www.w3.org/2000/svg">
<g id="iconamoon:history-fill" clip-path="url(#clip0_309_216)">
<path id="Vector" fill-rule="evenodd" clip-rule="evenodd" d="M6.25049 20.5997C6.03178 20.8185 5.90891 21.1152 5.90891 21.4245C5.90891 21.7339 6.03178 22.0306 6.25049 22.2494C10.8063 26.8052 18.1937 26.8052 22.7495 22.2494C27.3053 17.6935 27.3053 10.3062 22.7495 5.75037C18.1937 1.19454 10.8063 1.19454 6.25049 5.75037C4.34386 7.65083 3.15624 10.1543 2.8905 12.8332H1.66666C1.43595 12.8333 1.21044 12.9017 1.01863 13.0299C0.826816 13.1581 0.67732 13.3403 0.589038 13.5534C0.500756 13.7666 0.477653 14.0011 0.522648 14.2274C0.567644 14.4537 0.678718 14.6615 0.841829 14.8247L3.17516 17.158L3.1775 17.1604C3.2858 17.2687 3.41443 17.3545 3.556 17.413C3.69758 17.4715 3.8493 17.5014 4.00247 17.5011C4.15564 17.5008 4.30724 17.4702 4.44856 17.4111C4.58989 17.352 4.71815 17.2656 4.826 17.1569L7.15933 14.8247C7.32251 14.6615 7.43361 14.4535 7.47857 14.2271C7.52352 14.0007 7.50032 13.7661 7.4119 13.5529C7.32347 13.3397 7.17379 13.1575 6.9818 13.0294C6.78981 12.9013 6.56414 12.833 6.33333 12.8332H5.239C5.50277 10.7406 6.46753 8.79907 7.97604 7.325C9.48455 5.85093 11.4479 4.93127 13.546 4.71589C15.6441 4.50052 17.7533 5.00214 19.5298 6.13899C21.3064 7.27585 22.6455 8.9809 23.3289 10.9763C24.0123 12.9716 23.9997 15.1396 23.2932 17.1269C22.5866 19.1142 21.2278 20.8036 19.4382 21.9197C17.6486 23.0359 15.5338 23.513 13.4383 23.2733C11.3428 23.0336 9.3903 22.0912 7.899 20.5997C7.68026 20.3813 7.38382 20.2587 7.07475 20.2587C6.76567 20.2587 6.46923 20.3813 6.25049 20.5997ZM12.1667 9.3332C12.1667 9.02379 12.2896 8.72704 12.5084 8.50825C12.7272 8.28945 13.0239 8.16654 13.3333 8.16654C13.6427 8.16654 13.9395 8.28945 14.1583 8.50825C14.3771 8.72704 14.5 9.02379 14.5 9.3332V13.9999H19.1667C19.4761 13.9999 19.7728 14.1228 19.9916 14.3416C20.2104 14.5604 20.3333 14.8571 20.3333 15.1665C20.3333 15.476 20.2104 15.7727 19.9916 15.9915C19.7728 16.2103 19.4761 16.3332 19.1667 16.3332H13.3333C13.0239 16.3332 12.7272 16.2103 12.5084 15.9915C12.2896 15.7727 12.1667 15.476 12.1667 15.1665V9.3332Z" fill="#E57373"/>
</g>
<defs>
<clipPath id="clip0_309_216">
<rect width="28" height="28" fill="white" transform="translate(0.5)"/>
</clipPath>
</defs>
</svg>
