<svg width="16" height="17" viewBox="0 0 16 17" fill="none" xmlns="http://www.w3.org/2000/svg">
<path id="Vector" d="M8 16.5C3.5816 16.5 0 12.9184 0 8.5C0 4.0816 3.5816 0.5 8 0.5C12.4184 0.5 16 4.0816 16 8.5C16 12.9184 12.4184 16.5 8 16.5ZM8 14.9C9.69739 14.9 11.3253 14.2257 12.5255 13.0255C13.7257 11.8253 14.4 10.1974 14.4 8.5C14.4 6.80261 13.7257 5.17475 12.5255 3.97452C11.3253 2.77428 9.69739 2.1 8 2.1C6.30261 2.1 4.67475 2.77428 3.47452 3.97452C2.27428 5.17475 1.6 6.80261 1.6 8.5C1.6 10.1974 2.27428 11.8253 3.47452 13.0255C4.67475 14.2257 6.30261 14.9 8 14.9ZM8 4.5C8.21217 4.5 8.41566 4.58429 8.56569 4.73431C8.71571 4.88434 8.8 5.08783 8.8 5.3V9.3C8.8 9.51217 8.71571 9.71566 8.56569 9.86569C8.41566 10.0157 8.21217 10.1 8 10.1C7.78783 10.1 7.58434 10.0157 7.43431 9.86569C7.28429 9.71566 7.2 9.51217 7.2 9.3V5.3C7.2 5.08783 7.28429 4.88434 7.43431 4.73431C7.58434 4.58429 7.78783 4.5 8 4.5ZM8 12.5C7.78783 12.5 7.58434 12.4157 7.43431 12.2657C7.28429 12.1157 7.2 11.9122 7.2 11.7C7.2 11.4878 7.28429 11.2843 7.43431 11.1343C7.58434 10.9843 7.78783 10.9 8 10.9C8.21217 10.9 8.41566 10.9843 8.56569 11.1343C8.71571 11.2843 8.8 11.4878 8.8 11.7C8.8 11.9122 8.71571 12.1157 8.56569 12.2657C8.41566 12.4157 8.21217 12.5 8 12.5Z" fill="#AAAAAA"/>
</svg>
