<svg width="160" height="50" viewBox="0 0 160 50" fill="none" xmlns="http://www.w3.org/2000/svg">
<path d="M116.091 14.6166L127.459 14.4569C127.679 16.7465 127.844 19.0096 127.954 21.246C128.063 23.4824 128.118 25.639 128.118 27.7157C128.173 29.7923 128.201 31.8158 128.201 33.7859V49.2013C127.706 49.3078 126.91 49.4143 125.812 49.5208C124.768 49.6805 123.697 49.7604 122.599 49.7604C120.182 49.7604 118.48 49.361 117.491 48.5623C116.557 47.7636 116.091 46.3259 116.091 44.2492V14.6166ZM160 35.1438L148.549 35.2236C148.165 31.3365 147.945 27.6358 147.89 24.1214C147.835 20.607 147.808 17.2524 147.808 14.0575V0.63898C148.357 0.532485 149.153 0.399365 150.197 0.239619C151.24 0.0798735 152.339 0 153.492 0C155.853 0 157.529 0.425986 158.517 1.27796C159.506 2.07668 160 3.48775 160 5.51118V35.1438ZM160 31.3099V23.5623V47.6837C159.286 48.3227 158.27 48.8285 156.952 49.2013C155.689 49.6273 154.178 49.8403 152.421 49.8403C150.554 49.8403 148.796 49.5474 147.148 48.9617C145.556 48.3759 144.238 47.0714 143.194 45.0479L133.226 26.6773C132.622 25.5059 132.018 24.3344 131.414 23.1629C130.864 21.9915 130.315 20.82 129.766 19.6486C129.217 18.4239 128.668 17.1992 128.118 15.9744L116.091 18.6102V2.8754C116.75 1.97019 117.766 1.27796 119.139 0.798727C120.567 0.319494 122.104 0.0798771 123.752 0.0798771C125.564 0.0798771 127.267 0.372741 128.86 0.958469C130.507 1.5442 131.853 2.82215 132.896 4.79233L142.947 23.2428C143.551 24.361 144.155 25.5325 144.759 26.7572C145.364 27.9287 145.94 29.1001 146.489 30.2716C147.039 31.443 147.56 32.6411 148.055 33.8658L160 31.3099Z" fill="#E57373"/>
<path d="M91.7944 15.4153H104.316V49.1214C103.822 49.2812 103.026 49.4143 101.927 49.5208C100.829 49.6805 99.7031 49.7604 98.5497 49.7604C96.0783 49.7604 94.3208 49.3344 93.2773 48.4824C92.2887 47.6305 91.7944 46.1395 91.7944 44.0096V15.4153ZM104.316 30.7508H91.7944V0.63898C92.3436 0.532485 93.1675 0.399365 94.2659 0.239619C95.4192 0.0798735 96.5451 0 97.6435 0C100.005 0 101.708 0.399363 102.751 1.19809C103.795 1.99681 104.316 3.51438 104.316 5.7508V30.7508Z" fill="#E57373"/>
<path d="M60.8897 10.8626H60.3954C59.8462 12.5666 59.1872 14.4569 58.4183 16.5336C57.7043 18.6102 56.9629 20.7934 56.194 23.0831C55.4251 25.3195 54.6836 27.5559 53.9697 29.7924L52.4868 36.9809C52.1573 37.9926 51.8277 39.0575 51.4982 40.1757C51.2236 41.294 50.9215 42.3855 50.592 43.4505C50.2625 44.5155 49.9604 45.5272 49.6858 46.4856C49.4112 47.4441 49.1366 48.3493 48.862 49.2013C48.2579 49.361 47.5713 49.5208 46.8024 49.6805C46.0335 49.8935 45.1273 50 44.0838 50C41.7772 50 40.0197 49.6007 38.8114 48.8019C37.6032 48.0032 36.999 46.8318 36.999 45.2876C36.999 44.6486 37.0814 43.983 37.2462 43.2908C37.4659 42.5985 37.713 41.7998 37.9876 40.8946C38.4819 39.1374 39.1684 36.9276 40.0471 34.2652C40.9808 31.6028 41.9694 28.7274 43.0129 25.639C44.1113 22.4974 45.2097 19.409 46.3082 16.3738C47.4615 13.3387 48.505 10.5431 49.4387 7.98724C50.4272 5.43133 51.2236 3.43453 51.8277 1.99683C52.5966 1.51759 53.8049 1.09161 55.4525 0.718868C57.1551 0.292885 58.8302 0.079895 60.4778 0.079895C62.8394 0.079895 64.9539 0.426006 66.8212 1.11823C68.6885 1.75721 69.8693 2.79555 70.3636 4.23325C71.4071 7.0554 72.533 10.3302 73.7413 14.0575C75.0044 17.7317 76.2676 21.5921 77.5308 25.639C78.794 29.6859 80.0023 33.6262 81.1556 37.4601C82.3639 41.2407 83.4074 44.6486 84.2861 47.6837C83.682 48.3227 82.8032 48.8552 81.6499 49.2812C80.4965 49.7604 79.1235 50 77.5308 50C75.279 50 73.6863 49.6007 72.7527 48.8019C71.819 48.0032 71.105 46.8051 70.6107 45.2077L67.9745 36.262L66.574 29.4729C65.915 27.0767 65.2285 24.7604 64.5145 22.524C63.8005 20.2876 63.1415 18.1843 62.5373 16.2141C61.9332 14.1906 61.384 12.4068 60.8897 10.8626ZM46.9672 38.4186L51.8277 28.9936H71.105L72.7527 38.4186H46.9672Z" fill="#E57373"/>
<path d="M12.4396 29.3131H0V7.26835C0 5.24492 0.604132 3.6741 1.8124 2.55589C3.02066 1.38443 4.64083 0.798706 6.67292 0.798706C7.82626 0.798706 8.92468 0.878578 9.96818 1.03832C11.0666 1.19807 11.8904 1.33118 12.4396 1.43768V29.3131ZM6.50815 31.1501V21.4057H31.305C31.6346 21.9382 31.9366 22.6304 32.2112 23.4824C32.4858 24.2811 32.6231 25.1597 32.6231 26.1182C32.6231 27.8221 32.2112 29.1001 31.3874 29.9521C30.6185 30.7508 29.5476 31.1501 28.1745 31.1501H6.50815ZM6.67292 10.5431V0.798706H34.106C34.4355 1.27794 34.7376 1.94354 35.0122 2.79551C35.2868 3.64748 35.4241 4.5527 35.4241 5.51116C35.4241 7.2151 35.0122 8.49306 34.1884 9.34503C33.4195 10.1438 32.3485 10.5431 30.9755 10.5431H6.67292ZM0 24.6006H12.522V49.1214C12.0277 49.2811 11.2314 49.4143 10.1329 49.5208C9.03452 49.6805 7.90864 49.7604 6.7553 49.7604C4.28385 49.7604 2.52637 49.3344 1.48287 48.4824C0.49429 47.6304 0 46.1661 0 44.0894V24.6006Z" fill="#E57373"/>
</svg>
