<svg width="189" height="189" viewBox="0 0 189 189" fill="none" xmlns="http://www.w3.org/2000/svg">
<path d="M170.889 92.4103C170.889 134.727 136.585 169.032 94.2679 169.032C51.9509 169.032 17.6462 134.727 17.6462 92.4103C17.6462 50.0934 51.9509 15.7887 94.2679 15.7887C136.585 15.7887 170.889 50.0934 170.889 92.4103Z" fill="#E57373"/>
<path fill-rule="evenodd" clip-rule="evenodd" d="M101.904 49.2306C102.715 49.3002 103.386 49.8904 103.56 50.6864L121.027 130.974L137.423 93.2945C137.718 92.6165 138.387 92.1781 139.126 92.1781H169.032C170.058 92.1781 170.889 93.0098 170.889 94.0356C170.889 95.0614 170.058 95.8931 169.032 95.8931H140.344L122.139 137.731C121.817 138.47 121.056 138.918 120.253 138.839C119.451 138.76 118.791 138.172 118.62 137.385L101.206 57.3436L77.2978 116.212C77.0011 116.942 76.2757 117.406 75.4877 117.368C74.7001 117.33 74.0221 116.8 73.7969 116.044L60.3862 71.0998L51.1392 94.7132C50.8601 95.4246 50.1737 95.8931 49.4094 95.8931H19.5037C18.4779 95.8931 17.6462 95.0614 17.6462 94.0356C17.6462 93.0098 18.4779 92.1781 19.5037 92.1781H48.1421L58.8942 64.7221C59.1835 63.9837 59.9093 63.5105 60.7016 63.5435C61.4933 63.5765 62.1773 64.1086 62.4039 64.8683L75.8452 109.916L100.023 50.3822C100.33 49.6276 101.092 49.1604 101.904 49.2306Z" fill="#C04343"/>
<path d="M106.511 127.259L87.6347 116.479C86.4928 115.843 85.4674 114.974 84.5596 113.872C83.6517 112.771 82.9737 111.571 82.5261 110.274L72.634 82.5777L61.3595 94.9797L66.7374 110.591C67.3155 112.167 67.2333 113.677 66.4908 115.122C65.7483 116.568 64.5818 117.532 62.9908 118.015C61.3999 118.498 59.8865 118.391 58.4507 117.694C57.0143 116.997 56.0531 115.855 55.5664 114.268L50.3497 98.7834C49.6299 96.8377 49.4855 94.8474 49.9164 92.8125C50.3469 90.7781 51.2445 88.9981 52.6088 87.4736L70.9948 66.6585C72.9577 64.4843 75.4607 63.3814 78.5042 63.3494C81.5477 63.3173 84.5243 63.7074 87.4341 64.5201C90.6484 65.486 93.9371 66.0553 97.3001 66.2285C100.663 66.4012 103.982 66.0474 107.26 65.166C109.503 64.5066 111.617 63.5727 113.6 62.3644C115.583 61.1561 117.447 59.7681 119.193 58.2013C120.413 57.0854 121.82 56.5045 123.414 56.4585C125.007 56.4126 126.402 56.9443 127.598 58.0537C128.793 59.1635 129.37 60.5223 129.329 62.1304C129.288 63.7385 128.653 65.0968 127.425 66.2062C125.415 67.9987 123.338 69.631 121.194 71.103C119.049 72.5751 116.734 73.8465 114.251 74.9183C111.206 76.1587 108.09 76.9973 104.902 77.4343C101.714 77.8708 98.4978 77.8968 95.2527 77.5118L101.411 94.7707L117.486 89.6273C118.978 89.156 120.484 88.9967 122.005 89.1495C123.526 89.3018 125.01 89.7764 126.458 90.5728L149.298 102.905C150.75 103.697 151.691 104.866 152.122 106.414C152.554 107.96 152.324 109.464 151.432 110.923C150.628 112.279 149.5 113.166 148.049 113.587C146.598 114.006 145.154 113.866 143.718 113.165L121.983 101.57L101.862 108.075L112.461 114.05C114.339 115.178 115.807 116.694 116.863 118.599C117.918 120.504 118.386 122.576 118.267 124.818L116.932 147.341C116.842 148.998 116.185 150.361 114.959 151.431C113.734 152.501 112.293 152.989 110.636 152.896C108.979 152.803 107.64 152.142 106.62 150.914C105.6 149.687 105.135 148.242 105.224 146.582L106.511 127.259ZM73.3621 59.8373C70.2137 60.219 67.3838 59.4254 64.8725 57.4569C62.3607 55.4885 60.9118 52.9288 60.5259 49.7771C60.14 46.6254 60.9355 43.7954 62.9119 41.2867C64.8883 38.778 67.4465 37.3294 70.5861 36.9411C73.7258 36.5527 76.558 37.3477 79.0823 39.3262C81.6066 41.3047 83.0536 43.8631 83.4223 47.0011C83.791 50.1393 82.9979 52.9711 81.0429 55.4968C79.0879 58.0221 76.5273 59.4691 73.3621 59.8373Z" fill="white"/>
<mask id="mask0_25_278" style="mask-type:luminance" maskUnits="userSpaceOnUse" x="76" y="74" width="19" height="19">
<path d="M90.2212 74.0537L76.1313 78.7754L80.853 92.8653L94.9429 88.1436L90.2212 74.0537Z" fill="white"/>
</mask>
<g mask="url(#mask0_25_278)">
<path d="M87.3074 88.7435C87.1305 88.8025 86.9401 88.8067 86.7608 88.7561C84.106 88.0126 82.8322 87.3198 82.1046 86.8638C80.5545 85.8909 79.5658 84.69 79.081 83.1933C78.5256 81.4784 79.4307 79.6288 81.0992 79.0697C82.3121 78.6634 83.3811 79.0651 84.0614 79.47C84.0828 79.4825 84.1065 79.4904 84.1316 79.4932C84.1562 79.496 84.1812 79.4932 84.2049 79.4853C84.2286 79.4774 84.2504 79.4644 84.2685 79.4473C84.2867 79.4305 84.3011 79.4096 84.3108 79.3864C84.6089 78.6527 85.2205 77.6887 86.4335 77.2823C88.1015 76.7232 89.939 77.6538 90.5292 79.3576C91.0438 80.8445 90.9778 82.3983 90.3272 84.1086C90.0212 84.9111 89.4222 86.2313 87.7513 88.4245C87.639 88.5727 87.4843 88.6841 87.3074 88.7435Z" fill="#C04343"/>
</g>
</svg>
