<svg width="28" height="28" viewBox="0 0 28 28" fill="none" xmlns="http://www.w3.org/2000/svg">
<g id="ix:user-profile-filled">
<path id="Vector" fill-rule="evenodd" clip-rule="evenodd" d="M13.9999 2.33337C15.532 2.33337 17.0491 2.63513 18.4646 3.22143C19.88 3.80773 21.1661 4.66709 22.2495 5.75044C23.3329 6.83379 24.1922 8.11991 24.7785 9.53538C25.3648 10.9508 25.6666 12.4679 25.6666 14C25.6666 20.4434 20.4432 25.6667 13.9999 25.6667C7.55662 25.6667 2.33325 20.4434 2.33325 14C2.33325 7.55674 7.55662 2.33337 13.9999 2.33337ZM15.1666 15.1667H12.8333C9.94493 15.1667 7.46524 16.916 6.39571 19.4131C8.08796 21.786 10.8632 23.3334 13.9999 23.3334C17.1366 23.3334 19.9118 21.786 21.6041 19.4129C20.5346 16.916 18.0549 15.1667 15.1666 15.1667ZM13.9999 5.83337C12.0669 5.83337 10.4999 7.40039 10.4999 9.33337C10.4999 11.2664 12.0669 12.8334 13.9999 12.8334C15.9329 12.8334 17.4999 11.2664 17.4999 9.33337C17.4999 7.40039 15.9329 5.83337 13.9999 5.83337Z" fill="#AAAAAA"/>
</g>
</svg>
