<svg width="28" height="28" viewBox="0 0 28 28" fill="none" xmlns="http://www.w3.org/2000/svg">
<g id="ix:user-profile-filled">
<path id="Vector" fill-rule="evenodd" clip-rule="evenodd" d="M13.9999 2.3335C15.532 2.33349 17.0491 2.63525 18.4646 3.22155C19.88 3.80785 21.1661 4.66721 22.2495 5.75056C23.3329 6.83391 24.1922 8.12003 24.7785 9.5355C25.3648 10.951 25.6666 12.4681 25.6666 14.0001C25.6666 20.4435 20.4432 25.6668 13.9999 25.6668C7.55662 25.6668 2.33325 20.4435 2.33325 14.0001C2.33325 7.55686 7.55662 2.3335 13.9999 2.3335ZM15.1666 15.1668H12.8333C9.94493 15.1668 7.46524 16.9161 6.39571 19.4132C8.08796 21.7862 10.8632 23.3335 13.9999 23.3335C17.1366 23.3335 19.9118 21.7862 21.6041 19.4131C20.5346 16.9161 18.0549 15.1668 15.1666 15.1668ZM13.9999 5.8335C12.0669 5.8335 10.4999 7.40051 10.4999 9.3335C10.4999 11.2665 12.0669 12.8335 13.9999 12.8335C15.9329 12.8335 17.4999 11.2665 17.4999 9.3335C17.4999 7.40051 15.9329 5.8335 13.9999 5.8335Z" fill="#E57373"/>
</g>
</svg>
