<svg width="20" height="20" viewBox="0 0 20 20" fill="none" xmlns="http://www.w3.org/2000/svg">
<g id="majesticons:pin">
<g id="Group">
<path id="Vector" d="M10.7965 15.7967L7.49987 12.5001L4.2032 9.2034C4.10697 9.10706 4.03582 8.9886 3.99596 8.85839C3.95611 8.72818 3.94877 8.59019 3.97459 8.45649C4.00041 8.32279 4.0586 8.19745 4.14407 8.09144C4.22954 7.98544 4.33968 7.90199 4.46487 7.8484L8.84903 5.96924C8.94971 5.92614 9.0409 5.86363 9.1174 5.78527C9.1939 5.70692 9.2542 5.61425 9.29487 5.51257L10.364 2.84007C10.4153 2.7121 10.4974 2.59884 10.6032 2.51043C10.7089 2.42201 10.8349 2.36121 10.9699 2.33346C11.105 2.30572 11.2447 2.3119 11.3768 2.35144C11.5088 2.39099 11.629 2.46267 11.7265 2.56007L17.4399 8.2734C17.5373 8.37094 17.6089 8.49111 17.6485 8.62315C17.688 8.75519 17.6942 8.89498 17.6665 9.02999C17.6387 9.16501 17.5779 9.29103 17.4895 9.39678C17.4011 9.50252 17.2878 9.58468 17.1599 9.6359L14.4874 10.7051C14.3857 10.7457 14.293 10.806 14.2147 10.8825C14.1363 10.959 14.0738 11.0502 14.0307 11.1509L12.1515 15.5351C12.0979 15.6603 12.0145 15.7704 11.9085 15.8559C11.8025 15.9413 11.6771 15.9995 11.5434 16.0253C11.4097 16.0512 11.2718 16.0438 11.1415 16.004C11.0113 15.9641 10.8929 15.893 10.7965 15.7967Z" fill="#FF5151"/>
<path id="Vector_2" d="M3.33325 16.6667L7.49992 12.5001M7.49992 12.5001L10.7966 15.7967C10.8929 15.893 11.0114 15.9641 11.1416 16.004C11.2718 16.0438 11.4098 16.0512 11.5435 16.0253C11.6772 15.9995 11.8025 15.9413 11.9085 15.8559C12.0146 15.7704 12.098 15.6603 12.1516 15.5351L14.0308 11.1509C14.0738 11.0502 14.1364 10.959 14.2147 10.8825C14.2931 10.806 14.3857 10.7457 14.4874 10.7051L17.1599 9.6359C17.2879 9.58468 17.4011 9.50252 17.4896 9.39678C17.578 9.29103 17.6388 9.16501 17.6665 9.02999C17.6943 8.89498 17.6881 8.75519 17.6485 8.62315C17.609 8.49111 17.5373 8.37094 17.4399 8.2734L11.7266 2.56007C11.6291 2.46267 11.5089 2.39099 11.3768 2.35144C11.2448 2.3119 11.105 2.30572 10.97 2.33346C10.835 2.36121 10.709 2.42201 10.6032 2.51043C10.4975 2.59884 10.4153 2.7121 10.3641 2.84007L9.29492 5.51257C9.25426 5.61425 9.19395 5.70692 9.11745 5.78527C9.04095 5.86363 8.94976 5.92614 8.84909 5.96924L4.46492 7.8484C4.33973 7.90199 4.22959 7.98544 4.14412 8.09144C4.05865 8.19745 4.00046 8.32279 3.97464 8.45649C3.94882 8.59019 3.95616 8.72818 3.99601 8.85839C4.03587 8.9886 4.10702 9.10706 4.20325 9.2034L7.49992 12.5001Z" stroke="#FF5151" stroke-width="2" stroke-linecap="round" stroke-linejoin="round"/>
</g>
</g>
</svg>
