<svg width="24" height="24" viewBox="0 0 24 24" fill="none" xmlns="http://www.w3.org/2000/svg">
<g id="material-symbols:search">
<path id="Vector" d="M21.4444 23L14.4444 16C13.8889 16.4444 13.25 16.7963 12.5278 17.0556C11.8056 17.3148 11.037 17.4444 10.2222 17.4444C8.2037 17.4444 6.49556 16.7452 5.09778 15.3467C3.7 13.9481 3.00074 12.24 3 10.2222C2.99926 8.20444 3.69852 6.4963 5.09778 5.09778C6.49704 3.69926 8.20519 3 10.2222 3C12.2393 3 13.9478 3.69926 15.3478 5.09778C16.7478 6.4963 17.4467 8.20444 17.4444 10.2222C17.4444 11.037 17.3148 11.8056 17.0556 12.5278C16.7963 13.25 16.4444 13.8889 16 14.4444L23 21.4444L21.4444 23ZM10.2222 15.2222C11.6111 15.2222 12.7919 14.7363 13.7644 13.7644C14.737 12.7926 15.223 11.6119 15.2222 10.2222C15.2215 8.83259 14.7356 7.65222 13.7644 6.68111C12.7933 5.71 11.6126 5.2237 10.2222 5.22222C8.83185 5.22074 7.65148 5.70704 6.68111 6.68111C5.71074 7.65519 5.22445 8.83556 5.22222 10.2222C5.22 11.6089 5.7063 12.7896 6.68111 13.7644C7.65593 14.7393 8.8363 15.2252 10.2222 15.2222Z" fill="white"/>
</g>
</svg>
