<svg width="29" height="28" viewBox="0 0 29 28" fill="none" xmlns="http://www.w3.org/2000/svg">
<g id="hugeicons:live-streaming-02">
<path id="Vector" fill-rule="evenodd" clip-rule="evenodd" d="M5.13159 22.5773C5.30659 22.7523 5.52825 22.834 5.74992 22.834C5.97159 22.834 6.19325 22.7523 6.36825 22.5773C6.70659 22.239 6.70659 21.679 6.36825 21.3407C4.60659 19.579 3.70825 17.4323 3.70825 14.959C3.70825 12.4857 4.60659 10.339 6.36825 8.57732C6.70659 8.23899 6.70659 7.67899 6.36825 7.34065C6.20359 7.17793 5.98142 7.08667 5.74992 7.08667C5.51842 7.08667 5.29625 7.17793 5.13159 7.34065C3.05492 9.41732 1.95825 12.054 1.95825 14.959C1.95825 17.864 3.05492 20.5007 5.13159 22.5773ZM9.24992 20.5007C9.02825 20.5007 8.80659 20.419 8.63159 20.244C7.35992 18.9723 6.62492 17.0473 6.62492 14.959C6.62492 12.8707 7.35992 10.9457 8.63159 9.67399C8.96992 9.33565 9.52992 9.33565 9.86825 9.67399C10.2066 10.0123 10.2066 10.5723 9.86825 10.9107C8.92325 11.8557 8.37492 13.3373 8.37492 14.959C8.37492 16.5807 8.92325 18.0623 9.86825 19.0073C10.2066 19.3457 10.2066 19.9057 9.86825 20.244C9.69325 20.419 9.47159 20.5007 9.24992 20.5007ZM14.4999 18.1673C12.7266 18.1673 11.2916 16.7323 11.2916 14.959C11.2916 13.1857 12.7266 11.7507 14.4999 11.7507C16.2733 11.7507 17.7083 13.1857 17.7083 14.959C17.7083 16.7323 16.2733 18.1673 14.4999 18.1673ZM14.4999 13.5007C14.3083 13.5007 14.1186 13.5384 13.9416 13.6117C13.7646 13.685 13.6038 13.7925 13.4683 13.928C13.3328 14.0634 13.2254 14.2243 13.1521 14.4013C13.0787 14.5783 13.041 14.768 13.041 14.9596C13.041 15.1512 13.0787 15.3409 13.1521 15.5179C13.2254 15.6949 13.3328 15.8557 13.4683 15.9912C13.6038 16.1267 13.7646 16.2341 13.9416 16.3074C14.1186 16.3808 14.3083 16.4185 14.4999 16.4185C14.8867 16.4185 15.2576 16.2648 15.5311 15.9914C15.8046 15.7179 15.9583 15.3469 15.9583 14.9602C15.9583 14.5734 15.8046 14.2024 15.5311 13.929C15.2576 13.6555 14.8867 13.5018 14.4999 13.5018M19.7464 20.5018C19.5248 20.5018 19.3031 20.4202 19.1281 20.2452C18.9656 20.0803 18.8746 19.8582 18.8746 19.6268C18.8746 19.3954 18.9656 19.1733 19.1281 19.0085C20.0731 18.0635 20.6214 16.5818 20.6214 14.9602C20.6214 13.3385 20.0731 11.8568 19.1281 10.9118C18.9656 10.747 18.8746 10.5249 18.8746 10.2935C18.8746 10.0621 18.9656 9.83996 19.1281 9.67516C19.4664 9.33682 20.0264 9.33682 20.3648 9.67516C21.6364 10.9468 22.3714 12.8718 22.3714 14.9602C22.3714 17.0485 21.6364 18.9735 20.3648 20.2452C20.1898 20.4202 19.9681 20.5018 19.7464 20.5018ZM22.6281 22.5785C22.8031 22.7535 23.0248 22.8352 23.2464 22.8352C23.4681 22.8352 23.6898 22.7535 23.8648 22.5785C25.9414 20.5018 27.0381 17.8652 27.0381 14.9602C27.0381 12.0552 25.9414 9.41849 23.8648 7.34182C23.7001 7.1791 23.4779 7.08784 23.2464 7.08784C23.0149 7.08784 22.7927 7.1791 22.6281 7.34182C22.2898 7.68016 22.2898 8.24016 22.6281 8.57849C24.3898 10.3402 25.2881 12.4868 25.2881 14.9602C25.2881 17.4335 24.3898 19.5802 22.6281 21.3418C22.2898 21.6802 22.2898 22.2402 22.6281 22.5785Z" fill="#AAAAAA"/>
</g>
</svg>
